<?xml version="1.0" standalone="no"?>
<!DOCTYPE svg PUBLIC "-//W3C//DTD SVG 20010904//EN"
 "http://www.w3.org/TR/2001/REC-SVG-20010904/DTD/svg10.dtd">
<svg version="1.0" xmlns="http://www.w3.org/2000/svg"
 width="1075.000000pt" height="1280.000000pt" viewBox="0 0 1075.000000 1280.000000"
 preserveAspectRatio="xMidYMid meet">
<metadata>
Created by potrace 1.15, written by Peter Selinger 2001-2017
</metadata>
<g transform="translate(0.000000,1280.000000) scale(0.100000,-0.100000)"
fill="#fff" stroke="none">
<path d="M9165 12794 c-120 -17 -172 -28 -260 -55 -406 -125 -737 -446 -875
-849 -63 -187 -86 -435 -57 -625 91 -583 534 -1033 1116 -1130 125 -21 363
-16 481 9 172 37 342 110 490 209 96 64 283 251 347 347 108 161 189 362 218
540 19 123 19 321 -1 441 -91 545 -523 988 -1066 1094 -80 16 -332 28 -393 19z"/>
<path d="M1046 12040 c-408 -46 -757 -294 -931 -662 -213 -451 -123 -973 229
-1324 242 -241 537 -356 880 -341 279 12 528 115 738 307 175 160 289 357 349
603 32 128 32 369 2 503 -93 401 -375 719 -755 853 -157 55 -355 78 -512 61z"/>
<path d="M5125 10315 c-267 -59 -477 -225 -600 -474 -60 -121 -80 -216 -79
-376 1 -122 4 -151 28 -230 73 -242 231 -429 451 -535 145 -70 212 -85 380
-85 115 1 154 5 220 23 483 137 751 635 594 1107 -43 129 -108 233 -209 335
-123 123 -265 200 -430 235 -87 18 -272 18 -355 0z"/>
<path d="M9190 9470 c-410 -42 -855 -185 -1254 -402 -164 -90 -318 -193 -526
-353 -377 -289 -615 -442 -940 -605 -454 -227 -860 -333 -1280 -334 -202 0
-314 11 -490 50 -213 48 -379 108 -592 215 -65 32 -118 57 -118 55 0 -3 61
-45 136 -95 399 -266 818 -393 1299 -394 326 0 637 54 965 168 410 143 735
310 1215 625 263 173 359 229 504 297 422 197 822 295 1206 296 483 1 752
-137 852 -436 26 -79 27 -90 28 -287 0 -217 -12 -319 -60 -525 -64 -273 -153
-518 -391 -1075 -229 -539 -283 -674 -369 -935 -277 -832 -471 -1766 -525
-2520 -6 -82 -19 -323 -30 -535 -11 -212 -25 -448 -30 -525 -52 -703 -154
-1157 -316 -1408 -59 -91 -179 -210 -228 -227 -69 -23 -141 16 -211 114 -131
186 -204 413 -320 993 -95 475 -153 706 -252 1008 -304 927 -804 1508 -1415
1641 -96 21 -297 21 -408 0 -311 -58 -636 -247 -905 -528 -142 -146 -172 -193
-65 -98 253 225 576 397 855 455 128 27 316 23 440 -9 453 -118 834 -579 1067
-1291 93 -285 189 -744 248 -1190 79 -592 148 -873 278 -1131 180 -358 477
-535 787 -469 260 55 542 322 705 667 190 405 287 938 355 1958 51 760 80
1010 181 1525 69 353 147 672 254 1045 120 415 184 593 416 1158 314 764 409
1065 470 1492 25 175 26 550 2 670 -105 514 -455 842 -988 926 -114 18 -432
26 -550 14z"/>
<path d="M1626 8839 c-118 -13 -226 -43 -333 -94 -344 -163 -575 -510 -663
-997 -76 -422 -32 -881 129 -1360 110 -328 211 -536 520 -1076 550 -960 766
-1398 952 -1924 128 -363 184 -638 269 -1328 74 -594 108 -800 170 -1051 161
-642 487 -969 940 -946 405 21 732 344 958 947 129 343 185 609 292 1385 53
376 98 560 179 730 84 175 165 265 293 325 230 108 464 36 713 -222 56 -56
115 -121 133 -143 l33 -40 -30 55 c-105 192 -292 390 -433 459 -186 92 -366
92 -553 2 -190 -92 -329 -260 -448 -540 -69 -164 -115 -326 -213 -746 -125
-541 -168 -692 -265 -940 -159 -405 -342 -671 -526 -762 -66 -33 -85 -37 -147
-37 -162 0 -265 110 -355 379 -79 237 -113 469 -186 1255 -72 776 -159 1169
-380 1730 -190 481 -394 880 -871 1702 -339 583 -461 840 -552 1163 -72 256
-86 358 -86 625 0 207 2 248 22 340 43 201 96 324 188 435 181 222 513 238
909 45 218 -107 371 -209 770 -515 385 -295 534 -398 746 -516 336 -186 705
-287 1137 -309 574 -29 1131 100 1514 352 89 58 272 207 264 215 -1 2 -36 -19
-77 -46 -467 -310 -1177 -402 -1889 -245 -168 37 -363 105 -513 178 -270 132
-439 256 -892 657 -502 443 -746 615 -1075 754 -197 84 -453 125 -644 104z"/>
</g>
</svg>
