<?xml version="1.0" standalone="no"?>
<!DOCTYPE svg PUBLIC "-//W3C//DTD SVG 20010904//EN"
 "http://www.w3.org/TR/2001/REC-SVG-20010904/DTD/svg10.dtd">
<svg version="1.0" xmlns="http://www.w3.org/2000/svg"
 width="1280.000000pt" height="853.000000pt" viewBox="0 0 1280.000000 853.000000"
 preserveAspectRatio="xMidYMid meet">
<metadata>
Created by potrace 1.15, written by Peter Selinger 2001-2017
</metadata>
<g transform="translate(0.000000,853.000000) scale(0.100000,-0.100000)"
fill="#09B6BD" stroke="none">
<path d="M8655 7213 c-74 -18 -314 -154 -584 -330 -169 -110 -212 -133 -306
-162 -185 -58 -437 -65 -897 -26 -407 34 -578 40 -733 26 -590 -54 -1126 -304
-1725 -802 -323 -268 -517 -364 -920 -454 -91 -21 -181 -46 -201 -56 -118 -59
-86 -281 81 -564 34 -58 70 -136 85 -185 119 -386 128 -404 230 -455 53 -26
72 -30 165 -33 l105 -4 28 -68 c36 -88 78 -145 123 -168 l37 -19 -34 -24 c-57
-42 -100 -57 -200 -73 -262 -41 -400 -130 -431 -279 -13 -63 -4 -151 48 -447
25 -143 26 -146 64 -180 21 -19 136 -91 255 -159 253 -144 442 -268 575 -377
402 -327 1334 -792 1943 -968 298 -87 334 -91 732 -90 709 1 1259 61 1655 180
204 62 458 172 570 247 152 101 182 172 215 507 8 85 20 187 26 225 15 87 -3
160 -56 229 l-34 45 25 63 c78 199 110 507 65 637 -17 49 -18 57 -4 90 44 105
-54 341 -142 341 -18 0 -25 7 -30 33 -4 17 -16 44 -26 59 -21 29 -205 128
-238 128 -14 0 -25 11 -35 34 -14 34 -51 59 -146 96 -19 8 -56 29 -82 46 -28
19 -68 36 -96 40 -29 4 -59 17 -78 34 -41 35 -201 121 -299 160 -51 20 -96 31
-129 31 -36 1 -57 6 -72 20 -11 11 -54 28 -95 40 -41 11 -114 33 -164 49 -76
25 -187 48 -245 50 -8 1 1 10 21 20 76 40 117 105 118 189 l1 43 28 -53 c17
-34 44 -65 71 -84 41 -29 47 -30 144 -30 58 1 141 9 192 19 120 25 313 83 351
107 33 20 54 56 54 92 0 20 3 19 26 -10 24 -31 29 -33 92 -33 108 0 314 56
332 89 7 14 26 20 72 23 93 8 145 27 195 72 38 36 45 48 53 101 15 90 12 308
-5 413 -19 115 -66 265 -100 314 -16 24 -25 51 -25 76 0 54 -34 251 -64 370
-72 281 -227 628 -328 731 -48 49 -102 71 -173 70 -33 -1 -69 -4 -80 -6z
m-1413 -2474 c43 -43 107 -70 182 -77 l61 -5 -43 -19 c-24 -10 -83 -30 -130
-44 -153 -46 -163 -56 -171 -173 l-6 -73 -50 -20 c-63 -25 -111 -61 -130 -99
-14 -26 -15 -69 -10 -312 6 -232 4 -296 -8 -359 -28 -139 -87 -227 -186 -278
-79 -40 -149 -62 -168 -52 -10 5 -47 13 -83 17 -105 11 -152 24 -201 56 -51
33 -87 36 -149 14 -60 -21 -72 -19 -129 19 -77 52 -154 77 -251 83 -121 6
-150 11 -150 29 0 31 -41 94 -72 110 -17 9 -62 20 -100 25 -58 7 -79 16 -143
59 -117 79 -174 93 -284 69 -45 -9 -54 -8 -100 15 -28 15 -58 38 -67 52 -24
35 -61 52 -152 68 -43 8 -96 24 -118 35 -21 12 -30 19 -19 16 89 -28 146 -37
208 -32 145 12 277 112 265 198 -3 16 -3 29 -1 29 2 0 20 -11 41 -24 87 -57
189 -55 293 7 76 45 102 98 95 190 -3 37 -3 67 -2 67 2 0 20 -27 40 -59 121
-197 241 -237 368 -122 95 85 145 235 136 407 l-4 83 53 -79 c176 -263 377
-317 467 -126 26 55 52 195 42 223 -3 8 -2 12 3 9 5 -3 12 -22 15 -41 14 -75
44 -125 83 -142 52 -23 188 -22 280 1 154 39 210 107 220 268 l6 91 18 -36
c10 -19 33 -50 51 -68z"/>
</g>
</svg>
